<svg width="32" height="32" viewBox="0 0 32 32" fill="none" xmlns="http://www.w3.org/2000/svg">
<g clip-path="url(#clip0_6755_2121)">
<circle cx="16" cy="16" r="15.5" stroke="#182238"/>
<g clip-path="url(#clip1_6755_2121)">
<path fill-rule="evenodd" clip-rule="evenodd" d="M26.4958 11.451C26.648 10.9505 26.4958 10.582 25.7671 10.582H23.3608C22.7485 10.582 22.4662 10.9001 22.3131 11.2512C22.3131 11.2512 21.0893 14.1809 19.3559 16.0839C18.7949 16.6357 18.5401 16.8108 18.2339 16.8108C18.0808 16.8108 17.8508 16.6357 17.8508 16.1343V11.451C17.8508 10.8497 17.6821 10.582 17.1724 10.582H13.3884C13.0062 10.582 12.7761 10.8607 12.7761 11.1256C12.7761 11.6949 13.6433 11.8269 13.7322 13.4292V16.9107C13.7322 17.6743 13.5919 17.8127 13.2857 17.8127C12.4699 17.8127 10.4853 14.8693 9.30742 11.5014C9.07917 10.846 8.84817 10.582 8.23308 10.582H5.825C5.1375 10.582 5 10.9001 5 11.2512C5 11.8764 5.81583 14.982 8.79958 19.0896C10.7888 21.8946 13.5892 23.4154 16.1403 23.4154C17.6702 23.4154 17.859 23.078 17.859 22.4959V20.3757C17.859 19.7001 18.0038 19.5654 18.4888 19.5654C18.8463 19.5654 19.4577 19.7414 20.8858 21.0934C22.5175 22.6967 22.7861 23.4154 23.7046 23.4154H26.1108C26.7983 23.4154 27.143 23.078 26.945 22.4107C26.7268 21.747 25.9477 20.7836 24.9146 19.6405C24.3536 18.9897 23.5121 18.2884 23.2563 17.9374C22.8998 17.4873 23.0015 17.2865 23.2563 16.8859C23.2563 16.8859 26.1897 12.8288 26.4949 11.451" fill="#182238"/>
</g>
</g>
<defs>
<clipPath id="clip0_6755_2121">
<rect width="32" height="32" fill="white"/>
</clipPath>
<clipPath id="clip1_6755_2121">
<rect width="22" height="22" fill="white" transform="translate(5 6)"/>
</clipPath>
</defs>
</svg>
